<?xml version="1.0" encoding="UTF-8" standalone="no"?>
<svg xmlns:rdf="http://www.w3.org/1999/02/22-rdf-syntax-ns#" xmlns="http://www.w3.org/2000/svg" viewBox="0 0 83.5 79.4" version="1.1">
<g>
<g transform="matrix(0.79940233,0,0,0.79940233,-243.24786,-653.71739)">
<path d="m409,849a23.2,23.2,0,1,1,-46.5,0,23.2,23.2,0,1,1,46.5,0z" transform="translate(-20.75,25.25)" stroke="#afb4bd" stroke-dasharray="none" stroke-miterlimit="4" stroke-width="6.254673" fill="none"/>
<path d="m315,902h64.6c16.7,0,7.95-25.2-10.1-15.2,15.8-13-9.37-34.6-21.7-16.1,1.44-16.8-29.8-19.1-22.5,5.3-3.26-8.44-19.6,0.0509-8.84,8.74-13.1,0.907-16.7,17.2-1.52,17.2z" fill="#afb4bd"/>
<path stroke-linejoin="miter" d="m386,853,7.07-7.07" stroke="#afb4bd" stroke-linecap="round" stroke-miterlimit="4" stroke-dasharray="none" stroke-width="6.254673" fill="#efeef3"/>
<path stroke-linejoin="miter" d="m395,874,10,0" stroke="#afb4bd" stroke-linecap="round" stroke-miterlimit="4" stroke-dasharray="none" stroke-width="6.254673" fill="#efeef3"/>
<path stroke-linejoin="miter" d="m365,844,0-10" stroke="#afb4bd" stroke-linecap="round" stroke-miterlimit="4" stroke-dasharray="none" stroke-width="6.254673" fill="#efeef3"/>
<path stroke-linejoin="miter" d="m344,853-7.07-7.07" stroke="#afb4bd" stroke-linecap="round" stroke-miterlimit="4" stroke-dasharray="none" stroke-width="6.254673" fill="#efeef3"/>
</g>
</g>
</svg>
