<?xml version="1.0" encoding="UTF-8" standalone="no"?>
<svg xmlns:rdf="http://www.w3.org/1999/02/22-rdf-syntax-ns#" xmlns="http://www.w3.org/2000/svg" viewBox="0 0 83.5 79.4" version="1.1">
<g>
<g transform="translate(-204.92617,-857.61645)">
<path d="m215,902h64.6c16.7,0,7.95-25.2-10.1-15.2,15.8-13-9.37-34.6-21.7-16.1,1.44-16.8-29.8-19.1-22.5,5.3-3.26-8.44-19.6,0.0509-8.84,8.74-13.1,0.907-16.7,17.2-1.52,17.2z" fill="#afb4bd"/>
<path stroke-linejoin="miter" d="m222,908-3.41,9.77" stroke="#afb4bd" stroke-linecap="round" stroke-miterlimit="4" stroke-dasharray="none" stroke-width="5" fill="none"/>
<path stroke-linejoin="miter" d="m245,908-3.41,9.77" stroke="#afb4bd" stroke-linecap="round" stroke-miterlimit="4" stroke-dasharray="none" stroke-width="5" fill="none"/>
<path stroke-linejoin="miter" d="m225,923-3.41,9.77" stroke="#afb4bd" stroke-linecap="round" stroke-miterlimit="4" stroke-dasharray="none" stroke-width="5" fill="none"/>
<path stroke-linejoin="miter" d="m249,923-3.41,9.77" stroke="#afb4bd" stroke-linecap="round" stroke-miterlimit="4" stroke-dasharray="none" stroke-width="5" fill="none"/>
<path stroke-linejoin="miter" d="m234,908-3.41,9.77" stroke="#afb4bd" stroke-linecap="round" stroke-miterlimit="4" stroke-dasharray="none" stroke-width="5" fill="none"/>
<path stroke-linejoin="miter" d="m257,908-3.41,9.77" stroke="#afb4bd" stroke-linecap="round" stroke-miterlimit="4" stroke-dasharray="none" stroke-width="5" fill="none"/>
<path stroke-linejoin="miter" d="m237,923-3.41,9.77" stroke="#afb4bd" stroke-linecap="round" stroke-miterlimit="4" stroke-dasharray="none" stroke-width="5" fill="none"/>
<path stroke-linejoin="miter" d="m261,923-3.41,9.77" stroke="#afb4bd" stroke-linecap="round" stroke-miterlimit="4" stroke-dasharray="none" stroke-width="5" fill="none"/>
<path stroke-linejoin="miter" d="m269,908-3.41,9.77" stroke="#afb4bd" stroke-linecap="round" stroke-miterlimit="4" stroke-dasharray="none" stroke-width="5" fill="none"/>
</g>
</g>
</svg>
